<svg xmlns="http://www.w3.org/2000/svg" width="336" height="388" style="shape-rendering:geometricPrecision;text-rendering:geometricPrecision;image-rendering:optimizeQuality;fill-rule:evenodd;clip-rule:evenodd"><path fill="#030201" d="M192.5 2.5a414.223 414.223 0 0 1 48 12.5c17.506 8.84 32.673 20.673 45.5 35.5a118.613 118.613 0 0 1 10 18l26 38c17.212 31.887 12.045 59.72-15.5 83.5-18.528 13.501-39.195 21.835-62 25l6.5 6.5c11.772 20.983 19.772 43.316 24 67 .424 21.367-2.243 42.367-8 63l-13 20c-3.293 3.287-7.127 5.787-11.5 7.5a284.661 284.661 0 0 0-25 5c-9.479 1.06-18.812.393-28-2a90.479 90.479 0 0 1-17-15c-7.908-3.698-16.242-5.532-25-5.5a747.402 747.402 0 0 0-38 5.5c-19.47 1.682-32.97-6.484-40.5-24.5a86.232 86.232 0 0 1-3-10 531.164 531.164 0 0 1-1-58 196.638 196.638 0 0 0 3-32 530.163 530.163 0 0 1 13.5-41 229.23 229.23 0 0 1-39-3.5c-9.948-4.219-18.781-10.052-26.5-17.5-6.247-8.63-9.914-18.296-11-29a671.966 671.966 0 0 0-3.5-29 89.977 89.977 0 0 1 2.5-9 13.243 13.243 0 0 1 5-3C14.803 94.382 23.97 80.549 36.5 69a818.86 818.86 0 0 1 78-53 195.829 195.829 0 0 1 45-11c11.156-.836 22.156-1.669 33-2.5Z" style="opacity:.948"/><path fill="#73502c" d="M176.5 15.5c7.008-.166 14.008 0 21 .5 11.95 2.661 23.95 5.328 36 8l26 12a222.209 222.209 0 0 1 10.5 9.5 826.782 826.782 0 0 0 40 56 314.75 314.75 0 0 1 15 30c-.072 10.028-2.072 19.695-6 29l-10 16a351.732 351.732 0 0 1-39.5 25.5 219.689 219.689 0 0 1-25 4.5 235.102 235.102 0 0 1-31-4.5 504.632 504.632 0 0 1-36-23c-12.551-3.961-25.218-4.294-38-1a977.85 977.85 0 0 0-33 12 702.15 702.15 0 0 1-53 0 130.978 130.978 0 0 1-25-9A85.656 85.656 0 0 1 15 163.5c-4.08-12.945-6.08-26.279-6-40 2.592 1.482 4.925 1.148 7-1 9.465-18.469 21.632-34.97 36.5-49.5 6.876-3.87 12.876-8.87 18-15 17.966-14.154 37.633-25.487 59-34a438.285 438.285 0 0 0 47-8.5Z" style="opacity:1"/><path fill="#ebb075" d="M154.5 183.5c6.527-.43 12.86.404 19 2.5a344.398 344.398 0 0 0 37 22 435.225 435.225 0 0 0 23 4.5c2.888 5.394 6.722 10.06 11.5 14a384.684 384.684 0 0 1 23 62c.568 20.315-1.765 40.315-7 60-6.915 8.248-14.415 15.748-22.5 22.5a447.913 447.913 0 0 0-27 6c-7.68 1.263-15.013.263-22-3l-12-12c-12.512-6.835-25.845-9.168-40-7a139.152 139.152 0 0 1-38 4c-7.184-1.277-13.35-4.444-18.5-9.5a160.975 160.975 0 0 1-8-15 930.454 930.454 0 0 1 0-61 43.361 43.361 0 0 0 2-8c-.982-19.152 3.018-37.152 12-54a133.978 133.978 0 0 0 3-11 317.564 317.564 0 0 1 17.5-3.5 539.356 539.356 0 0 1 29-11c6.12-.976 12.12-1.809 18-2.5Z" style="opacity:1"/></svg>